<?xml version="1.0" encoding="utf-8"?>
<!-- Generator: Adobe Illustrator 22.0.1, SVG Export Plug-In . SVG Version: 6.00 Build 0)  -->
<svg version="1.1" id="Layer_1" xmlns="http://www.w3.org/2000/svg" xmlns:xlink="http://www.w3.org/1999/xlink" x="0px" y="0px"
	 viewBox="0 0 304.2 145.4" style="enable-background:new 0 0 304.2 145.4;" xml:space="preserve">
<style type="text/css">
	.st0{fill:#FFFFFF;}
</style>
<title>logo</title>
<path class="st0" d="M38.1,43.4c0,5.7,0.2,9.2,0.7,10.5c0.3,1.2,1.5,2,2.7,1.7c0.3,0.6,0.5,1.3,0.5,2c0,1-0.8,1.9-2.4,2.4
	c-1.5,0.5-3.1,0.8-4.7,0.8c-0.8,0.1-1.5-0.1-2.2-0.6c-0.9-1-1.6-2.1-2.1-3.2c-2.2,1.3-4.6,2.3-7,3.1c-2.5,0.8-5.1,1.1-7.7,1.1
	c-3.5,0-6.2-1-8.2-2.9c-1.9-1.9-2.9-5.5-2.9-10.7c0-10.1-0.1-16.2-0.1-18.4c0-1.5-0.2-3-0.7-4.5c-0.2-0.7-0.8-1.2-1.4-1.5
	c-0.6-0.2-1.3-0.3-2-0.3c-0.4-0.6-0.6-1.3-0.6-2c0-1,0.7-1.7,2.1-2c1.9-0.4,3.8-0.6,5.8-0.6c1.3-0.1,2.7,0.1,4,0.4
	c0.6,0.1,1.1,0.6,1.4,1.2c0.3,1.8,0.4,3.7,0.3,5.6v16c0,5.8,0.6,9.6,1.9,11.4c1.2,1.8,3.2,2.8,5.4,2.7c1.6,0,3.2-0.3,4.7-1
	c1.4-0.5,2.5-1.5,3.1-2.9c0.5-1.2,0.8-3.6,0.8-7c0-8.1,0-13.2-0.1-15.3c0-1.5-0.2-3-0.6-4.5c-0.2-0.7-0.6-1.3-1.3-1.6
	c-0.7-0.2-1.4-0.3-2.1-0.3c-0.4-0.6-0.6-1.3-0.6-2c0-1,0.7-1.7,2.2-2c1.8-0.4,3.6-0.6,5.5-0.6c1.3-0.1,2.7,0.1,4,0.4
	c0.6,0.2,1.2,0.7,1.4,1.3c0.3,1.9,0.3,3.8,0.3,5.7L38.1,43.4z"/>
<path class="st0" d="M61.6,23.5c2.6-1.8,5.4-3.2,8.3-4.1c2.4-0.8,4.8-1.3,7.3-1.3c3.8,0,6.6,0.9,8.5,2.6c1.9,1.7,2.9,5.1,2.9,10
	c0,15.2,0.2,23.3,0.7,24.2c0.4,0.9,1.4,1.3,3,1.3c0.3,0.8,0.5,1.6,0.5,2.5c0.1,0.6-0.2,1.2-0.7,1.5c-0.9,0.3-1.8,0.4-2.7,0.4
	c-3.9,0-6.3,0-7.2-0.1c-0.7,0-1.4-0.3-1.8-0.9c-0.4-0.8-0.5-1.6-0.5-2.5V38.7c0-5.8-0.6-9.7-1.8-11.6c-1.2-1.9-3.2-2.9-6-2.9
	c-2.2,0-4.4,0.7-6.1,2c-1.7,1.3-2.6,3.7-2.6,7.2v9c0,5,0.1,9.6,0.3,13.8h4.7c0.3,0.7,0.5,1.6,0.5,2.4c0.1,0.6-0.1,1.1-0.5,1.6
	c-0.5,0.3-1.2,0.5-1.8,0.4H50c-0.3-0.8-0.5-1.7-0.6-2.6c0-0.5,0.1-1,0.5-1.4c0.4-0.3,1-0.5,1.5-0.4h2.9c0.2-4.5,0.3-10,0.3-16.6
	c0-8.4-0.3-13.2-1-14.5c-0.7-1.4-2.2-2.2-3.7-2c-0.4-0.8-0.6-1.6-0.6-2.5c-0.1-0.6,0.3-1.2,0.9-1.5c0.6-0.2,4.3-0.4,11.2-0.7
	C61.7,20.2,61.7,21.8,61.6,23.5z"/>
<path class="st0" d="M102.1,18.9h2.9l3.4-12.1c1,0.3,2.1,0.8,3,1.3c0.8,0.4,1.4,1.1,1.9,1.8c0.4,0.7,0.6,3.1,0.6,7.2v1.7h14
	c0.3,1,0.5,2,0.5,3c0.1,0.6-0.1,1.2-0.5,1.6c-0.6,0.3-1.2,0.5-1.9,0.4h-12.1V44c0,4.8,0.4,7.9,1.3,9.4c0.8,1.5,2.3,2.4,4,2.4
	c2.3,0,4.5-0.6,6.5-1.7c0.6,0.9,0.9,2,0.9,3.1c0,1.5-1,2.7-2.5,3c-2.6,0.6-5.2,0.9-7.8,0.8c-3.9,0-6.7-0.8-8.5-2.4
	c-1.8-1.6-2.7-4.5-2.7-8.9v-10c0-5.4-0.2-10.7-0.5-15.8h-4.2c-0.3-1-0.5-2-0.5-3c0-0.6,0.1-1.1,0.5-1.6
	C101,19,101.5,18.8,102.1,18.9z"/>
<path class="st0" d="M148.4,56.1h4.5c0.4,0.7,0.6,1.6,0.5,2.4c0.1,0.6-0.1,1.1-0.5,1.6c-0.5,0.3-1.2,0.5-1.8,0.4h-16.7
	c-0.3-0.8-0.5-1.7-0.5-2.6c0-0.5,0.1-1,0.5-1.4c0.4-0.3,1-0.5,1.5-0.4h3.1c0.2-3.9,0.3-8.5,0.3-13.8c0-6.5,0-10.8-0.1-12.9
	c0-1.5-0.2-3-0.7-4.5c-0.3-0.7-0.8-1.3-1.5-1.5c-0.8-0.2-1.6-0.3-2.5-0.3c-0.4-0.6-0.6-1.3-0.6-2.1c-0.1-1,0.6-1.9,1.7-2.1
	c2.1-0.3,4.3-0.5,6.4-0.4c1.5-0.1,3,0,4.5,0.3c0.8,0.2,1.2,0.6,1.4,1.2c0.1,1,0.2,2,0.2,3v19.4C148.1,47.6,148.2,52.2,148.4,56.1z
	 M142.4,11.2c-1.5,0.1-2.9-0.3-4.1-1.2c-0.9-0.8-1.4-2.1-1.3-3.3c0-1.4,0.6-2.8,1.7-3.7c1.3-1,3-1.5,4.7-1.4c2,0,3.4,0.4,4.2,1.2
	c0.9,0.9,1.3,2,1.3,3.2c0.1,1.4-0.5,2.8-1.6,3.7C146.3,10.7,144.6,11.2,142.4,11.2L142.4,11.2z"/>
<path class="st0" d="M162,18.9h2.9l3.4-12.1c1,0.3,2.1,0.8,3,1.3c0.8,0.4,1.4,1.1,1.9,1.8c0.4,0.7,0.6,3.1,0.6,7.2v1.7h14
	c0.3,1,0.5,2,0.5,3c0.1,0.6-0.1,1.2-0.5,1.6c-0.6,0.3-1.2,0.5-1.9,0.4h-12.1V44c0,4.8,0.4,7.9,1.3,9.4c0.8,1.5,2.3,2.4,4,2.4
	c2.3,0,4.5-0.6,6.5-1.7c0.6,0.9,0.9,2,0.9,3.1c0,1.5-1,2.7-2.5,3c-2.6,0.6-5.2,0.9-7.8,0.8c-3.9,0-6.7-0.8-8.5-2.4
	c-1.8-1.6-2.7-4.5-2.7-8.9v-10c0-5.4-0.2-10.7-0.5-15.8h-4.2c-0.3-1-0.5-2-0.5-3c0-0.6,0.1-1.1,0.5-1.6
	C160.9,19,161.5,18.9,162,18.9z"/>
<path class="st0" d="M199.1,36.2c0-12-0.1-19.6-0.2-22.9c0-2.1-0.2-4.3-0.6-6.4c-0.2-0.8-0.7-1.5-1.5-1.9c-0.9-0.3-1.8-0.5-2.7-0.4
	c-0.4-0.8-0.6-1.7-0.6-2.6c-0.1-0.7,0.4-1.4,1.1-1.7c2.3-0.3,4.7-0.4,7-0.3c1.5-0.1,3,0,4.5,0.3c0.8,0.2,1.2,0.6,1.4,1.2
	c0.1,1,0.2,2,0.2,3v35.5c0,6.8,0.1,12.2,0.3,16.1h4.7c0.3,0.7,0.5,1.6,0.5,2.4c0.1,0.6-0.1,1.1-0.5,1.6c-0.5,0.3-1.2,0.5-1.8,0.4
	h-16.9c-0.3-0.8-0.5-1.7-0.6-2.6c0-0.5,0.1-1,0.5-1.4c0.4-0.3,1-0.5,1.5-0.4h3.1C199,52.2,199.1,45.6,199.1,36.2z"/>
<path class="st0" d="M240.2,17.8c5.3,0,9.2,1.2,11.7,3.7c2.6,2.5,3.8,6.6,3.8,12.3c0,2.5-0.5,4.3-1.4,5.3s-2.9,1.5-5.9,1.5h-18.8
	c0.1,4.6,1,8.2,2.8,10.9c1.8,2.6,5,3.9,9.5,3.9c4.2,0,8.3-1.1,11.9-3.3c1.1,1,1.8,2.4,1.8,3.9c0,1.9-1.6,3.2-4.7,4
	c-3.5,0.8-7,1.2-10.6,1.1c-7.2,0-12.5-1.5-15.6-4.6S220,48.3,220,41c0-7.2,1.8-12.8,5.3-17C228.9,19.9,233.8,17.8,240.2,17.8z
	 M238.6,23.5c-2.5-0.2-5,1-6.5,3c-1.5,2-2.3,5.2-2.4,9.5h4.4c4.6,0,7.8-0.1,9.5-0.3s2.7-0.5,2.9-0.9c0.3-0.7,0.5-1.6,0.4-2.4
	c0.1-2.4-0.6-4.7-2.1-6.6C243.1,24.2,240.9,23.4,238.6,23.5z"/>
<path class="st0" d="M292.8,57.1c-2.3,1.4-4.7,2.5-7.2,3.3c-2.2,0.7-4.6,1-6.9,1c-4.8,0-8.5-1.4-11.1-4.3c-2.6-2.9-3.9-7.9-3.9-15
	c0-7.9,1.7-13.9,5.2-18c3.5-4.1,8.6-6.2,15.5-6.2c1.4,0,2.8,0.1,4.1,0.2c1.1,0.2,2.1,0.4,3.1,0.6c0-2.1-0.1-4.3-0.1-6.7
	c0-1.7-0.2-3.4-0.6-5.1c-0.2-0.8-0.7-1.5-1.5-1.9c-0.9-0.3-1.8-0.5-2.7-0.4c-0.4-0.8-0.5-1.7-0.5-2.6c-0.1-0.7,0.4-1.4,1.1-1.7
	c2.3-0.3,4.7-0.4,7-0.3c1.5-0.1,3,0,4.5,0.3c0.8,0.2,1.2,0.6,1.4,1.2c0.1,1,0.2,2,0.2,3V35c0,10.8,0.2,17.1,0.7,18.9
	c0.5,1.8,1.3,2.6,2.3,2.3c0.4,0.6,0.6,1.2,0.6,1.9c0,0.8-0.9,1.5-2.8,2.2c-1.5,0.6-3,1-4.6,1.1c-0.7,0-1.3-0.3-1.8-0.7
	C293.9,59.6,293.3,58.4,292.8,57.1z M282.9,23.5c-3.4,0-5.9,1.2-7.4,3.6s-2.3,6.5-2.3,12.3c0,5.1,0.7,9.1,2.2,12
	c1.3,2.8,4.2,4.6,7.3,4.4c1.7,0,3.4-0.3,5-1.1c1.3-0.6,2.4-1.6,3.1-2.8c0.5-1.2,0.8-4.1,0.8-8.7V25.7c-1.2-0.6-2.4-1.2-3.7-1.5
	C286.3,23.7,284.6,23.5,282.9,23.5z"/>
<path class="st0" d="M3.1,103.8h2.4c0.1-4.9,1.1-8.3,3-10.2c1.9-1.9,5-2.8,9.1-2.8c3.6,0,7.2,0.5,10.7,1.5l1-1.5
	c1.1,0,2.2,0,3.3,0.2c0.6,0.1,0.9,0.4,0.9,0.8c0.1,0.7,0.1,1.4,0.1,2.1v24.5c0,4.7,0.1,8.4,0.2,11.1h3.3c0.3,0.5,0.4,1.1,0.4,1.6
	c0,0.4-0.1,0.8-0.3,1.1c-0.4,0.2-0.8,0.3-1.3,0.3H24.2c-0.2-0.6-0.3-1.2-0.4-1.8c0-0.4,0.1-0.7,0.3-1c0.3-0.2,0.7-0.4,1.1-0.3h2.2
	c0.1-2.7,0.2-7.3,0.2-13.8V97.1c-4.6-1.7-8.3-2.5-11.1-2.5c-2.3,0-3.7,0.6-4.2,1.8c-0.7,1.9-0.9,3.9-0.8,5.9v1.6h7.7
	c0.2,0.7,0.4,1.4,0.4,2.1c0.1,0.4-0.1,0.8-0.3,1.1c-0.4,0.2-0.8,0.3-1.3,0.3h-6.4V120c0,3.6,0.1,6.8,0.2,9.6H16
	c0.2,0.5,0.4,1.1,0.4,1.6c0,0.4-0.1,0.8-0.3,1.1c-0.4,0.2-0.8,0.3-1.2,0.3H2.1c-0.2-0.6-0.4-1.2-0.4-1.8c0-0.4,0.1-0.7,0.3-1
	c0.3-0.2,0.7-0.3,1.1-0.3h2.2c0.1-2.7,0.2-5.9,0.2-9.6v-12.6H2.1c-0.2-0.7-0.4-1.4-0.4-2.1c0-0.4,0.1-0.8,0.3-1.1
	C2.3,103.9,2.7,103.8,3.1,103.8z"/>
<path class="st0" d="M51.7,129.5h3.1c0.3,0.5,0.4,1.1,0.4,1.6c0,0.4-0.1,0.8-0.3,1.1c-0.4,0.2-0.8,0.3-1.3,0.3H42.1
	c-0.2-0.6-0.3-1.2-0.4-1.8c0-0.4,0.1-0.7,0.3-1c0.3-0.2,0.7-0.4,1.1-0.3h2.2c0.1-2.7,0.2-5.9,0.2-9.6c0-4.4,0-7.4-0.1-8.9
	c0-1-0.2-2.1-0.5-3.1c-0.2-0.5-0.6-0.9-1.1-1.1c-0.6-0.2-1.1-0.2-1.7-0.2c-0.3-0.4-0.4-0.9-0.4-1.4c-0.1-0.7,0.4-1.4,1.1-1.5
	c1.5-0.2,2.9-0.3,4.4-0.3c1,0,2.1,0,3.1,0.2c0.5,0.1,0.8,0.4,0.9,0.8c0.1,0.7,0.1,1.4,0.1,2.1v13.3
	C51.5,123.6,51.6,126.8,51.7,129.5z M47.5,98.5c-1,0.1-2-0.2-2.8-0.8c-0.6-0.6-1-1.4-0.9-2.3c0-1,0.4-1.9,1.2-2.6
	c0.9-0.7,2.1-1.1,3.2-1c1-0.1,2.1,0.2,2.9,0.8c0.6,0.6,0.9,1.4,0.9,2.2c0,1-0.4,1.9-1.1,2.6C50,98.2,48.8,98.6,47.5,98.5L47.5,98.5z
	"/>
<path class="st0" d="M81.9,106.5c1.1,1.9,1.6,4.1,1.6,6.2c0.1,3-1,5.9-3.2,8c-2.1,2-5.5,3.1-10,3.1c-2,0-3.4,0.2-4,0.7
	c-0.6,0.4-0.9,1.2-0.9,1.9c-0.1,0.9,0.4,1.8,1.2,2.2c0.8,0.4,3.8,0.7,9,0.7c5.1,0,8.4,0.5,9.9,1.6c1.5,1,2.4,2.8,2.3,4.6
	c0,3.1-1.6,5.5-4.8,7.3c-3.2,1.8-8.2,2.7-14.9,2.7c-3.3,0-5.5-0.4-6.6-1.3c-1.1-0.9-1.7-2.3-1.6-3.8c0-1.3,0.3-2.5,0.9-3.6
	c0.7-1.3,1.6-2.5,2.6-3.6c-0.9-0.4-1.7-1-2.3-1.8c-0.6-0.8-0.9-1.8-0.9-2.9c0-1.2,0.4-2.3,1.1-3.2c0.9-1.1,2.1-2,3.4-2.6
	c-1.3-0.5-2.3-1.5-3-2.7c-0.8-1.6-1.2-3.3-1.2-5.1c-0.1-3.1,1-6.2,3.2-8.4c2.1-2.2,5.3-3.3,9.5-3.3c2.2,0,4.4,0.4,6.5,1.1
	c1.4-0.8,3-1.3,4.5-1.7c1.3-0.1,2.6,0,3.9,0.2c0.2,0.1,0.3,0.4,0.3,0.6c-0.1,0.8-0.3,1.5-0.7,2.2c-0.5,1-0.9,1.4-1.3,1.4
	c-1.3-0.3-2.6-0.7-3.9-1.3L81.9,106.5z M67.2,133.4c-0.7,0.7-1.2,1.4-1.6,2.3c-0.4,0.8-0.5,1.7-0.5,2.6c-0.1,1.1,0.3,2.2,1.2,2.9
	c0.8,0.6,2.4,0.9,4.8,0.9c3.5,0,6.2-0.4,7.9-1.3s2.7-2.1,2.7-3.7c0.1-1.3-0.8-2.5-2-2.9C78.4,133.7,74.3,133.4,67.2,133.4
	L67.2,133.4z M71.9,106.4c-1.5-0.1-3.1,0.4-4.1,1.6c-0.9,1-1.4,2.9-1.4,5.7c0,2.3,0.4,4.1,1.3,5.1c1,1.1,2.6,1.7,4.1,1.6
	c1.6,0.1,3.2-0.4,4.4-1.4c0.9-1,1.4-2.8,1.4-5.5c0.1-1.9-0.4-3.8-1.4-5.3C75.1,107,73.5,106.3,71.9,106.4L71.9,106.4z"/>
<path class="st0" d="M95.1,103.7c0-1.4,0-3-0.1-4.6c0-1.2-0.1-2.4-0.4-3.5c-0.1-0.6-0.5-1.1-1-1.3c-0.6-0.2-1.2-0.3-1.8-0.3
	c-0.2-0.6-0.4-1.2-0.4-1.8c-0.1-0.5,0.2-1,0.7-1.1c1.6-0.2,3.2-0.3,4.8-0.2c1,0,2.1,0,3.1,0.2c0.6,0.1,0.9,0.4,0.9,0.8
	c0.1,0.7,0.1,1.4,0.1,2.1v12.4c1.4-0.9,2.9-1.6,4.4-2.1c1.7-0.6,3.6-0.9,5.4-0.9c2-0.1,4,0.5,5.6,1.8c1.3,1.2,2,3.5,2,6.9
	c0,10.5,0.1,16.1,0.5,16.7c0.3,0.6,1,0.9,2.1,0.9c0.2,0.5,0.3,1.1,0.3,1.7c0.1,0.4-0.1,0.8-0.5,1.1c-0.6,0.2-1.2,0.3-1.8,0.3
	c-2.7,0-4.4,0-5-0.1c-0.5,0-0.9-0.2-1.2-0.6c-0.3-0.5-0.4-1.1-0.3-1.7v-12.6c0-4-0.4-6.7-1.3-8c-0.9-1.4-2.5-2.1-4.1-2
	c-1.5,0-3,0.5-4.2,1.4c-1.2,0.9-1.8,2.6-1.8,4.9v6.2c0,3.5,0.1,6.6,0.2,9.6h3.2c0.2,0.5,0.4,1.1,0.4,1.6c0,0.4-0.1,0.8-0.3,1.1
	c-0.4,0.2-0.8,0.3-1.2,0.3H91.9c-0.2-0.6-0.4-1.2-0.4-1.8c0-0.4,0.1-0.7,0.3-1c0.3-0.2,0.7-0.3,1.1-0.3h2c0.2-3.1,0.2-6.5,0.2-10.1
	V103.7z"/>
<path class="st0" d="M127.8,103.8h2l2.4-8.3c0.7,0.2,1.4,0.5,2.1,0.9c0.5,0.3,1,0.7,1.3,1.2c0.3,0.5,0.4,2.1,0.4,5v1.2h9.6
	c0.2,0.7,0.4,1.4,0.4,2.1c0.1,0.4-0.1,0.8-0.3,1.1c-0.4,0.2-0.8,0.3-1.3,0.3H136v13.9c0,3.3,0.3,5.5,0.9,6.5c0.5,1,1.6,1.6,2.7,1.7
	c1.6,0,3.1-0.4,4.5-1.2c0.4,0.6,0.6,1.4,0.6,2.1c0,1-0.7,1.9-1.7,2.1c-1.8,0.4-3.6,0.6-5.4,0.5c-2.7,0-4.6-0.5-5.8-1.6
	s-1.8-3.1-1.8-6.1v-6.9c0-3.7-0.1-7.4-0.3-10.9h-2.9c-0.2-0.7-0.3-1.4-0.4-2.1c0-0.4,0.1-0.8,0.3-1.1
	C127,103.9,127.4,103.8,127.8,103.8z"/>
<path class="st0" d="M187.5,106.5c1.1,1.9,1.6,4.1,1.6,6.2c0.1,3-1,5.9-3.2,8c-2.1,2-5.5,3.1-10,3.1c-2,0-3.4,0.2-4,0.7
	c-0.6,0.4-1,1.2-0.9,1.9c-0.1,0.9,0.4,1.8,1.2,2.2c0.8,0.4,3.8,0.7,9,0.7s8.5,0.5,9.9,1.6c1.5,1,2.4,2.8,2.3,4.6
	c0,3.1-1.6,5.5-4.8,7.3c-3.2,1.8-8.2,2.7-14.9,2.7c-3.3,0-5.5-0.4-6.6-1.3c-1.1-0.9-1.7-2.3-1.7-3.8c0-1.3,0.3-2.5,0.9-3.6
	c0.7-1.3,1.6-2.5,2.6-3.6c-0.9-0.4-1.7-1-2.3-1.8c-0.6-0.8-0.9-1.8-0.9-2.9c0-1.2,0.4-2.3,1.1-3.2c0.9-1.1,2.1-2,3.4-2.6
	c-1.3-0.6-2.3-1.5-3-2.7c-0.8-1.6-1.2-3.3-1.1-5.1c-0.1-3.1,1-6.2,3.2-8.4c2.1-2.2,5.3-3.3,9.5-3.3c2.2,0,4.4,0.4,6.5,1.1
	c1.4-0.8,3-1.3,4.5-1.7c1.3-0.1,2.6,0,3.9,0.2c0.2,0.1,0.3,0.4,0.3,0.6c-0.1,0.8-0.3,1.5-0.7,2.2c-0.5,1-0.9,1.4-1.3,1.4
	c-1.3-0.3-2.6-0.7-3.9-1.3L187.5,106.5z M172.8,133.4c-0.7,0.7-1.2,1.4-1.6,2.3c-0.4,0.8-0.5,1.7-0.5,2.6c-0.1,1.1,0.3,2.2,1.2,2.9
	c0.8,0.6,2.4,0.9,4.8,0.9c3.5,0,6.2-0.4,8-1.3c1.8-0.8,2.7-2.1,2.7-3.7c0-1.3-0.8-2.5-2-2.9C184.1,133.7,179.9,133.4,172.8,133.4
	L172.8,133.4z M177.5,106.4c-1.5-0.1-3.1,0.4-4.1,1.6c-0.9,1-1.4,2.9-1.4,5.7c0,2.3,0.4,4.1,1.3,5.1c1,1.1,2.6,1.7,4.1,1.6
	c1.6,0.1,3.2-0.4,4.4-1.4c0.9-1,1.4-2.8,1.4-5.5c0.1-1.9-0.4-3.7-1.4-5.3C180.7,106.9,179.2,106.3,177.5,106.4L177.5,106.4z"/>
<path class="st0" d="M215.3,130.2c-1.6,0.9-3.3,1.7-5.1,2.2c-1.6,0.5-3.4,0.7-5.1,0.8c-2.7,0-4.6-0.6-5.9-1.9
	c-1.4-1.5-2.1-3.5-1.9-5.5c-0.1-2.7,1-5.2,3.2-6.9c2.1-1.6,5.4-2.4,9.9-2.4h4.3c-0.1-3.4-0.6-5.8-1.5-7.2s-2.4-2-4.6-2
	c-1.1,0-2.3,0.1-3.4,0.4c-0.3,0.6-0.6,1.2-1,1.8c-0.5,0.2-1.1,0.4-1.7,0.5c-1,0.3-1.7,0.2-2.1-0.1c-0.5-0.6-1-1.3-1.2-2
	c-0.4-0.7-0.6-1.5-0.6-2.3c0-0.4,0.2-0.7,0.5-0.9c1.3-0.4,2.6-0.7,3.9-0.8c2.4-0.3,4.9-0.5,7.4-0.5c3.5,0,6,0.6,7.7,1.8
	s2.5,3.4,2.5,6.6v9c0,4.2,0.2,6.7,0.5,7.6c0.2,0.8,1,1.3,1.8,1.1c0,0,0,0,0,0c0.2,0.4,0.3,0.8,0.4,1.3c0,0.7-0.4,1.2-1.2,1.5
	c-1.1,0.4-2.2,0.6-3.4,0.5c-0.5,0-1.1-0.1-1.6-0.2C216.3,131.9,215.7,131.1,215.3,130.2z M214.7,120.3c-1.7-0.3-3.5-0.4-5.2-0.4
	c-2.2,0-3.8,0.4-4.7,1.1c-1,0.9-1.4,2.2-1.3,3.5c-0.1,1.3,0.3,2.6,1.2,3.5c1,0.9,2.3,1.3,3.7,1.2c1.2,0,2.5-0.2,3.6-0.8
	c1-0.4,1.8-1.2,2.2-2.1c0.4-1.4,0.6-2.8,0.5-4.3L214.7,120.3z"/>
<path class="st0" d="M254.7,113.8c0,8.2,0.1,13.4,0.2,15.7h3.1c0.3,0.5,0.4,1.1,0.4,1.6c0,0.4-0.1,0.8-0.3,1.1
	c-0.4,0.2-0.8,0.3-1.3,0.3h-10.3c-0.2-0.6-0.3-1.2-0.4-1.8c0-0.4,0.1-0.7,0.3-1c0.3-0.2,0.7-0.4,1.1-0.3h1c0.1-2.9,0.2-6.9,0.2-12
	c0-4-0.4-6.7-1.3-8c-0.9-1.4-2.5-2.1-4.1-2c-1.3,0-2.6,0.5-3.6,1.4c-1.2,0.9-1.8,2.6-1.8,4.9v6.2c0,3.5,0.1,6.6,0.2,9.6h2.4
	c0.2,0.5,0.4,1.1,0.4,1.6c0,0.4-0.1,0.8-0.3,1.1c-0.4,0.2-0.8,0.3-1.2,0.3h-10.6c-0.2-0.6-0.4-1.2-0.4-1.8c0-0.4,0.1-0.7,0.3-1
	c0.3-0.2,0.7-0.3,1-0.3h2c0.2-3.1,0.2-6.9,0.2-11.4c0-5.8-0.2-9.1-0.7-10c-0.5-0.9-1.5-1.5-2.6-1.4c-0.3-0.5-0.4-1.1-0.4-1.7
	c0-0.4,0.2-0.8,0.6-1c2.6-0.3,5.2-0.5,7.8-0.4c0.1,1.1,0.1,2.3,0,3.4c1.7-1.2,3.6-2.1,5.6-2.8c1.6-0.6,3.3-0.9,5-0.9
	c1.6-0.1,3.1,0.3,4.5,1c1,0.6,1.7,1.5,2.1,2.6c1.6-1.1,3.4-2,5.3-2.7c1.6-0.6,3.2-0.9,4.9-0.9c2-0.1,4,0.5,5.6,1.8
	c1.3,1.2,2,3.5,2,6.9c0,10.5,0.1,16.1,0.5,16.7c0.3,0.6,1,0.9,2.1,0.9c0.2,0.5,0.3,1.1,0.3,1.7c0.1,0.4-0.1,0.8-0.5,1.1
	c-0.6,0.2-1.2,0.3-1.8,0.3c-2.7,0-4.4,0-5-0.1c-0.5,0-0.9-0.2-1.2-0.6c-0.3-0.5-0.4-1.1-0.3-1.7v-12.6c0-4-0.4-6.7-1.3-8
	c-0.9-1.4-2.5-2.1-4.1-2c-1.3,0-2.6,0.5-3.6,1.4C255.3,109.8,254.7,111.4,254.7,113.8z"/>
<path class="st0" d="M293.5,103.1c3.6,0,6.3,0.9,8.1,2.6c1.8,1.7,2.6,4.6,2.6,8.5c0.1,1.3-0.2,2.6-0.9,3.6c-0.6,0.7-2,1-4.1,1h-13
	c-0.1,2.6,0.6,5.2,1.9,7.5c1.2,1.8,3.4,2.7,6.6,2.7c2.9,0,5.7-0.8,8.2-2.3c0.8,0.7,1.2,1.6,1.3,2.7c0,1.3-1.1,2.2-3.2,2.8
	c-2.4,0.6-4.9,0.8-7.3,0.8c-5,0-8.6-1.1-10.8-3.2c-2.2-2.1-3.3-5.7-3.3-10.7c0-4.9,1.2-8.8,3.7-11.7S289.1,103.1,293.5,103.1z
	 M292.4,107c-1.7-0.1-3.4,0.7-4.5,2.1c-1,1.4-1.6,3.6-1.7,6.5h3c3.2,0,5.4-0.1,6.5-0.2s1.8-0.3,2-0.6c0.2-0.5,0.3-1.1,0.3-1.6
	c0.1-1.6-0.4-3.3-1.5-4.5C295.5,107.5,294,106.9,292.4,107L292.4,107z"/>
</svg>
