<svg id="Layer_1" data-name="Layer 1" xmlns="http://www.w3.org/2000/svg" viewBox="0 0 304.23 145.43"><title>logo</title><path d="M179.18,158.11c0,5.7.23,9.19.68,10.5a2.37,2.37,0,0,0,2.72,1.74,4.42,4.42,0,0,1,.51,2c0,1-.81,1.86-2.42,2.43a14.35,14.35,0,0,1-4.72.84,3.21,3.21,0,0,1-2.16-.59,14.36,14.36,0,0,1-2.13-3.23,35.33,35.33,0,0,1-7,3.1A25,25,0,0,1,157,176q-5.26,0-8.18-2.91t-2.91-10.68q0-15.16-.15-18.42a13.86,13.86,0,0,0-.7-4.48,2.6,2.6,0,0,0-1.44-1.53,6.15,6.15,0,0,0-2-.3,3.68,3.68,0,0,1-.55-2c0-1,.69-1.68,2.08-2a23.51,23.51,0,0,1,5.78-.56,14.26,14.26,0,0,1,4,.37,1.91,1.91,0,0,1,1.36,1.19,28.51,28.51,0,0,1,.28,5.58v16q0,8.7,1.93,11.38a6.25,6.25,0,0,0,5.38,2.68,11.49,11.49,0,0,0,4.71-1,5.6,5.6,0,0,0,3.08-2.85c.52-1.22.79-3.57.79-7q0-12.15-.11-15.29a16.37,16.37,0,0,0-.59-4.49,2.5,2.5,0,0,0-1.3-1.63,6.06,6.06,0,0,0-2.08-.3,3.68,3.68,0,0,1-.55-2c0-1,.73-1.68,2.18-2a22.63,22.63,0,0,1,5.46-.56,14.3,14.3,0,0,1,4,.37,1.94,1.94,0,0,1,1.36,1.29,32,32,0,0,1,.27,5.69Z" transform="translate(-141.12 -114.66)"/><path d="M202.67,138.15A33.43,33.43,0,0,1,211,134a24.24,24.24,0,0,1,7.33-1.32q5.64,0,8.52,2.61t2.86,10q0,22.86.66,24.22c.44.9,1.45,1.34,3,1.31a7,7,0,0,1,.47,2.47,1.58,1.58,0,0,1-.73,1.53,6.44,6.44,0,0,1-2.67.38q-5.91,0-7.22-.15a2.26,2.26,0,0,1-1.79-.89,4.92,4.92,0,0,1-.47-2.49V153.35q0-8.74-1.84-11.63t-6-2.89a9.65,9.65,0,0,0-6.1,2c-1.71,1.33-2.57,3.73-2.57,7.18v9q0,7.51.3,13.84h4.71a5.62,5.62,0,0,1,.51,2.38,2.12,2.12,0,0,1-.46,1.58,2.79,2.79,0,0,1-1.79.42H191.08a6.79,6.79,0,0,1-.55-2.55,1.84,1.84,0,0,1,.46-1.38,2.15,2.15,0,0,1,1.53-.45h2.93q.35-6.75.34-16.56,0-12.54-1-14.53a3.78,3.78,0,0,0-3.74-2,5.73,5.73,0,0,1-.55-2.46,1.38,1.38,0,0,1,.89-1.47q.89-.31,11.25-.66A24.48,24.48,0,0,1,202.67,138.15Z" transform="translate(-141.12 -114.66)"/><path d="M243.2,133.56h2.89l3.44-12.07a13.67,13.67,0,0,1,3,1.32,5.18,5.18,0,0,1,1.85,1.81q.59,1,.59,7.2v1.74h14a8.62,8.62,0,0,1,.51,3,2.17,2.17,0,0,1-.47,1.64,3,3,0,0,1-1.87.4H255v20.1q0,7.17,1.32,9.45a4.6,4.6,0,0,0,4,2.4,14.22,14.22,0,0,0,6.52-1.74,5.39,5.39,0,0,1,.93,3.05,3,3,0,0,1-2.48,3,29.1,29.1,0,0,1-7.84.76q-5.82,0-8.47-2.37t-2.66-8.88v-10q0-8.15-.47-15.8h-4.16a9.37,9.37,0,0,1-.51-3,2.18,2.18,0,0,1,.47-1.55A2.08,2.08,0,0,1,243.2,133.56Z" transform="translate(-141.12 -114.66)"/><path d="M289.55,170.81h4.5a5.23,5.23,0,0,1,.55,2.38,2.12,2.12,0,0,1-.46,1.58,2.88,2.88,0,0,1-1.83.42h-16.7a7.31,7.31,0,0,1-.51-2.55,1.88,1.88,0,0,1,.45-1.38,2.14,2.14,0,0,1,1.55-.45h3.14q.3-5.9.3-13.84,0-9.69-.15-12.94a13.86,13.86,0,0,0-.7-4.48,2.53,2.53,0,0,0-1.55-1.53,8.71,8.71,0,0,0-2.48-.3,3.85,3.85,0,0,1-.56-2.08,2,2,0,0,1,1.66-2.12,33.85,33.85,0,0,1,6.42-.39,21.07,21.07,0,0,1,4.54.32c.79.22,1.25.61,1.36,1.19a18.33,18.33,0,0,1,.17,3V157Q289.25,164.9,289.55,170.81Zm-6-44.94a6,6,0,0,1-4.08-1.15,4.14,4.14,0,0,1-1.32-3.31,4.77,4.77,0,0,1,1.7-3.74,7,7,0,0,1,4.67-1.4c2,0,3.4.4,4.25,1.21a4.27,4.27,0,0,1,1.27,3.25,4.78,4.78,0,0,1-1.57,3.72C287.4,125.4,285.75,125.87,283.52,125.87Z" transform="translate(-141.12 -114.66)"/><path d="M303.14,133.56H306l3.44-12.07a13.67,13.67,0,0,1,3,1.32,5.18,5.18,0,0,1,1.85,1.81q.58,1,.59,7.2v1.74h14a8.62,8.62,0,0,1,.51,3,2.17,2.17,0,0,1-.47,1.64,3,3,0,0,1-1.87.4H315v20.1q0,7.17,1.32,9.45a4.6,4.6,0,0,0,4,2.4,14.22,14.22,0,0,0,6.52-1.74,5.39,5.39,0,0,1,.93,3.05,3,3,0,0,1-2.48,3,29.1,29.1,0,0,1-7.84.76q-5.82,0-8.47-2.37t-2.66-8.88v-10q0-8.15-.47-15.8h-4.16a9.37,9.37,0,0,1-.51-3,2.18,2.18,0,0,1,.47-1.55A2.08,2.08,0,0,1,303.14,133.56Z" transform="translate(-141.12 -114.66)"/><path d="M340.18,150.85q0-18-.17-22.88a31.59,31.59,0,0,0-.61-6.39,2.75,2.75,0,0,0-1.47-1.91,7.09,7.09,0,0,0-2.67-.43,6.61,6.61,0,0,1-.56-2.59,1.53,1.53,0,0,1,1.09-1.65,37.38,37.38,0,0,1,7-.34,21.27,21.27,0,0,1,4.54.31c.79.22,1.25.61,1.36,1.19a18.33,18.33,0,0,1,.17,3v35.55q0,10.2.34,16.1h4.72a5.62,5.62,0,0,1,.51,2.38,2.11,2.11,0,0,1-.47,1.58,2.77,2.77,0,0,1-1.79.42h-16.9a6.81,6.81,0,0,1-.56-2.55,1.84,1.84,0,0,1,.47-1.38,2.15,2.15,0,0,1,1.53-.45h3.14Q340.19,164.92,340.18,150.85Z" transform="translate(-141.12 -114.66)"/><path d="M381.31,132.5q7.89,0,11.72,3.74t3.82,12.31c0,2.53-.45,4.28-1.36,5.27s-2.89,1.49-5.94,1.49H370.77q.09,6.93,2.78,10.87t9.54,3.95a22.46,22.46,0,0,0,11.85-3.31,5.45,5.45,0,0,1,1.83,3.87c0,1.89-1.57,3.23-4.7,4a45,45,0,0,1-10.59,1.15q-10.87,0-15.62-4.61t-4.73-15.53q0-10.74,5.33-17T381.31,132.5Zm-1.62,5.69a7.49,7.49,0,0,0-6.46,3c-1.47,2-2.28,5.19-2.42,9.49h4.38c4.64,0,7.81-.09,9.49-.28s2.66-.48,2.93-.91a4.82,4.82,0,0,0,.41-2.38,9.5,9.5,0,0,0-2.13-6.58A7.85,7.85,0,0,0,379.69,138.19Z" transform="translate(-141.12 -114.66)"/><path d="M433.9,171.79a31.72,31.72,0,0,1-7.23,3.27,24.62,24.62,0,0,1-6.92,1q-7.22,0-11.11-4.33t-3.89-15q0-11.8,5.19-18t15.5-6.18a27.84,27.84,0,0,1,4.12.25,31.29,31.29,0,0,1,3.15.64q0-3.15-.15-6.73a23.06,23.06,0,0,0-.6-5.08,2.71,2.71,0,0,0-1.48-1.91,7.18,7.18,0,0,0-2.66-.43,6.59,6.59,0,0,1-.55-2.59,1.52,1.52,0,0,1,1.06-1.65,37.43,37.43,0,0,1,7-.34,21.38,21.38,0,0,1,4.55.31c.79.22,1.24.61,1.36,1.19a18.33,18.33,0,0,1,.17,3v30.41q0,16.23.74,18.91c.49,1.78,1.27,2.56,2.31,2.33a3.68,3.68,0,0,1,.6,1.92c0,.79-.94,1.54-2.83,2.25a13.74,13.74,0,0,1-4.61,1.06,2.41,2.41,0,0,1-1.78-.74A14.33,14.33,0,0,1,433.9,171.79Zm-9.9-33.6q-5.1,0-7.37,3.55T414.35,154q0,7.65,2.17,12a7.53,7.53,0,0,0,7.31,4.36,11.21,11.21,0,0,0,5-1.09,6.16,6.16,0,0,0,3.08-2.84c.55-1.18.83-4.07.83-8.69V140.4a19.34,19.34,0,0,0-3.72-1.53A16.92,16.92,0,0,0,424,138.19Z" transform="translate(-141.12 -114.66)"/><path d="M144.24,218.48h2.37q.09-7.35,3-10.2c1.92-1.89,5-2.84,9.11-2.84a43.24,43.24,0,0,1,10.67,1.47l1-1.47a15.89,15.89,0,0,1,3.28.22c.55.15.86.42.94.82a12.11,12.11,0,0,1,.12,2.07v24.52q0,7,.2,11.1h3.26a3.69,3.69,0,0,1,.38,1.64,1.43,1.43,0,0,1-.33,1.09,2,2,0,0,1-1.26.29H165.3a5.14,5.14,0,0,1-.35-1.76,1.32,1.32,0,0,1,.31-1,1.47,1.47,0,0,1,1.07-.31h2.17q.19-4.06.2-13.77V211.71q-6.85-2.49-11.1-2.49c-2.27,0-3.67.59-4.2,1.76a15.16,15.16,0,0,0-.81,5.86v1.64h7.68a6,6,0,0,1,.35,2.05,1.46,1.46,0,0,1-.33,1.13,2.09,2.09,0,0,1-1.28.28h-6.42v12.68c0,3.65.1,6.84.23,9.55h4.28a3.81,3.81,0,0,1,.35,1.64,1.43,1.43,0,0,1-.32,1.09,1.92,1.92,0,0,1-1.23.29H143.21a4.78,4.78,0,0,1-.38-1.76,1.25,1.25,0,0,1,.33-1,1.45,1.45,0,0,1,1.05-.31h2.17c.15-2.71.23-5.9.23-9.55V221.94h-3.42a6.38,6.38,0,0,1-.36-2.05,1.47,1.47,0,0,1,.33-1.07A1.41,1.41,0,0,1,144.24,218.48Z" transform="translate(-141.12 -114.66)"/><path d="M192.81,244.17h3.11a3.69,3.69,0,0,1,.38,1.64,1.48,1.48,0,0,1-.32,1.09,2,2,0,0,1-1.26.29H183.2a5.14,5.14,0,0,1-.35-1.76,1.32,1.32,0,0,1,.31-1,1.47,1.47,0,0,1,1.07-.31h2.17c.13-2.71.2-5.9.2-9.55,0-4.45,0-7.43-.1-8.92a9.82,9.82,0,0,0-.48-3.09,1.72,1.72,0,0,0-1.07-1.05,6,6,0,0,0-1.72-.21,2.71,2.71,0,0,1-.38-1.44,1.35,1.35,0,0,1,1.15-1.46,23.41,23.41,0,0,1,4.42-.26,14.15,14.15,0,0,1,3.13.22,1.11,1.11,0,0,1,.94.82,12,12,0,0,1,.12,2.06v13.33C192.61,238.27,192.68,241.46,192.81,244.17Zm-4.16-31a4.25,4.25,0,0,1-2.81-.79,2.89,2.89,0,0,1-.91-2.29,3.31,3.31,0,0,1,1.17-2.58,4.9,4.9,0,0,1,3.23-1,4.19,4.19,0,0,1,2.93.83,3,3,0,0,1,.88,2.24,3.29,3.29,0,0,1-1.09,2.56A4.91,4.91,0,0,1,188.65,213.18Z" transform="translate(-141.12 -114.66)"/><path d="M223,221.12a12.6,12.6,0,0,1,1.64,6.24,10.55,10.55,0,0,1-3.18,8q-3.18,3.06-10,3.05-3.07,0-4,.66a2.24,2.24,0,0,0-.91,1.92,2.33,2.33,0,0,0,1.23,2.2q1.23.67,9,.67c5.1,0,8.4.52,9.92,1.57a5.27,5.27,0,0,1,2.27,4.64q0,4.63-4.82,7.33t-14.93,2.69q-4.92,0-6.59-1.33A4.5,4.5,0,0,1,201,255a8,8,0,0,1,.94-3.65,14.59,14.59,0,0,1,2.6-3.58,5.47,5.47,0,0,1-2.3-1.75,4.66,4.66,0,0,1-.86-2.85,5.28,5.28,0,0,1,1.11-3.24,9.13,9.13,0,0,1,3.4-2.59,6.22,6.22,0,0,1-3-2.73,10,10,0,0,1-1.16-5.13,11.75,11.75,0,0,1,3.16-8.45q3.17-3.28,9.53-3.29a17.84,17.84,0,0,1,6.47,1.14,20,20,0,0,1,4.54-1.73,17.75,17.75,0,0,1,3.87.19.69.69,0,0,1,.32.63,5.52,5.52,0,0,1-.69,2.18c-.46,1-.89,1.42-1.29,1.42a18.66,18.66,0,0,1-3.88-1.31Zm-14.71,26.95a7.34,7.34,0,0,0-1.57,2.31,6.71,6.71,0,0,0-.54,2.61,3.31,3.31,0,0,0,1.2,2.87c.8.59,2.41.88,4.81.88,3.51,0,6.17-.42,7.95-1.26s2.68-2.06,2.68-3.66a2.94,2.94,0,0,0-2-2.93Q218.92,248.07,208.31,248.07Zm4.75-27a5.16,5.16,0,0,0-4.13,1.56q-1.35,1.57-1.35,5.67,0,3.52,1.3,5.13a5,5,0,0,0,4.09,1.61,5.85,5.85,0,0,0,4.37-1.45q1.4-1.46,1.4-5.46a8.33,8.33,0,0,0-1.42-5.31A5.16,5.16,0,0,0,213.06,221.09Z" transform="translate(-141.12 -114.66)"/><path d="M236.23,218.36c0-1.44,0-3-.1-4.64a16.46,16.46,0,0,0-.41-3.5,1.88,1.88,0,0,0-1-1.32,4.81,4.81,0,0,0-1.83-.29,4.72,4.72,0,0,1-.38-1.79,1.06,1.06,0,0,1,.73-1.14,25.46,25.46,0,0,1,4.84-.24,14.82,14.82,0,0,1,3.13.22c.55.15.86.42.94.82a12.11,12.11,0,0,1,.12,2.07v12.39a20.13,20.13,0,0,1,4.41-2.12,15.89,15.89,0,0,1,5.4-.93,8,8,0,0,1,5.58,1.8q2,1.81,2,6.87,0,15.76.45,16.7c.31.63,1,.93,2.1.91a4.91,4.91,0,0,1,.32,1.7,1.08,1.08,0,0,1-.5,1.06,4.47,4.47,0,0,1-1.84.26c-2.72,0-4.38,0-5-.1a1.56,1.56,0,0,1-1.23-.62,3.29,3.29,0,0,1-.33-1.71V232.13q0-6-1.27-8a4.54,4.54,0,0,0-4.12-2,6.63,6.63,0,0,0-4.2,1.38q-1.77,1.38-1.77,4.95v6.18q0,5.19.2,9.55h3.25a3.81,3.81,0,0,1,.36,1.64,1.43,1.43,0,0,1-.33,1.09,1.9,1.9,0,0,1-1.23.29H233a4.78,4.78,0,0,1-.38-1.76,1.28,1.28,0,0,1,.32-1,1.49,1.49,0,0,1,1.06-.31h2q.23-4.65.23-10.13Z" transform="translate(-141.12 -114.66)"/><path d="M268.93,218.48h2l2.37-8.32a9.33,9.33,0,0,1,2.1.91,3.52,3.52,0,0,1,1.27,1.24c.28.48.41,2.14.41,5v1.2h9.64a6,6,0,0,1,.35,2.05,1.51,1.51,0,0,1-.32,1.13,2.13,2.13,0,0,1-1.29.28h-8.38v13.85c0,3.3.3,5.48.91,6.52a3.15,3.15,0,0,0,2.74,1.66,9.7,9.7,0,0,0,4.5-1.2,3.69,3.69,0,0,1,.64,2.11,2.09,2.09,0,0,1-1.71,2.08,20.24,20.24,0,0,1-5.41.52c-2.67,0-4.62-.54-5.84-1.64s-1.83-3.13-1.83-6.12v-6.89q0-5.62-.33-10.89h-2.87a6.64,6.64,0,0,1-.35-2.05,1.52,1.52,0,0,1,.32-1.07A1.45,1.45,0,0,1,268.93,218.48Z" transform="translate(-141.12 -114.66)"/><path d="M328.63,221.12a12.49,12.49,0,0,1,1.64,6.24,10.54,10.54,0,0,1-3.17,8q-3.18,3.06-10,3.05c-2,0-3.38.22-4,.66a2.22,2.22,0,0,0-.91,1.92,2.33,2.33,0,0,0,1.23,2.2q1.23.67,9,.67t9.92,1.57a5.27,5.27,0,0,1,2.27,4.64q0,4.63-4.82,7.33t-14.93,2.69c-3.28,0-5.47-.44-6.59-1.33A4.53,4.53,0,0,1,306.6,255a8.15,8.15,0,0,1,.94-3.65,14.64,14.64,0,0,1,2.61-3.58,5.34,5.34,0,0,1-2.3-1.75,4.6,4.6,0,0,1-.87-2.85,5.22,5.22,0,0,1,1.12-3.24,9.05,9.05,0,0,1,3.4-2.59,6.24,6.24,0,0,1-3-2.73,10,10,0,0,1-1.15-5.13,11.71,11.71,0,0,1,3.16-8.45q3.16-3.28,9.52-3.29a17.9,17.9,0,0,1,6.48,1.14,19.79,19.79,0,0,1,4.54-1.73,17.55,17.55,0,0,1,3.86.19.68.68,0,0,1,.33.63,5.52,5.52,0,0,1-.69,2.18c-.46,1-.89,1.42-1.29,1.42a18.46,18.46,0,0,1-3.88-1.31Zm-14.7,26.95a7,7,0,0,0-1.57,2.31,6.71,6.71,0,0,0-.54,2.61,3.31,3.31,0,0,0,1.2,2.87c.8.59,2.4.88,4.8.88q5.28,0,8-1.26c1.78-.84,2.68-2.06,2.68-3.66a3,3,0,0,0-2-2.93Q324.53,248.07,313.93,248.07Zm4.74-27a5.17,5.17,0,0,0-4.13,1.56q-1.35,1.57-1.35,5.67,0,3.52,1.31,5.13a5,5,0,0,0,4.09,1.61,5.82,5.82,0,0,0,4.36-1.45q1.41-1.46,1.41-5.46a8.39,8.39,0,0,0-1.42-5.31A5.17,5.17,0,0,0,318.67,221.09Z" transform="translate(-141.12 -114.66)"/><path d="M356.41,244.85a22.62,22.62,0,0,1-5.06,2.18,18.17,18.17,0,0,1-5.08.75q-4,0-5.89-1.86a7.34,7.34,0,0,1-1.93-5.53,8,8,0,0,1,3.19-6.85q3.19-2.37,9.88-2.38h4.3c-.12-3.43-.61-5.83-1.48-7.17s-2.4-2-4.61-2a15.41,15.41,0,0,0-3.37.35,10.34,10.34,0,0,1-1,1.81,10.27,10.27,0,0,1-1.69.52c-1,.26-1.72.21-2.12-.15a5.93,5.93,0,0,1-1.23-2,6.13,6.13,0,0,1-.63-2.31,1,1,0,0,1,.48-.91,15.56,15.56,0,0,1,3.94-.79,55.32,55.32,0,0,1,7.36-.47c3.45,0,6,.6,7.66,1.79s2.47,3.38,2.47,6.56v9q0,6.27.55,7.65a1.47,1.47,0,0,0,1.8,1.11,2.67,2.67,0,0,1,.35,1.26c0,.67-.42,1.17-1.25,1.53a8.78,8.78,0,0,1-3.35.52,3.8,3.8,0,0,1-1.57-.25A6.59,6.59,0,0,1,356.41,244.85Zm-.59-9.91a30.61,30.61,0,0,0-5.21-.44c-2.23,0-3.79.38-4.68,1.12a4.31,4.31,0,0,0-1.33,3.51,4.78,4.78,0,0,0,1.19,3.53,5,5,0,0,0,3.67,1.19,8.59,8.59,0,0,0,3.61-.76,4,4,0,0,0,2.21-2.13,12.44,12.44,0,0,0,.54-4.29Z" transform="translate(-141.12 -114.66)"/><path d="M395.78,228.44q0,12.27.21,15.73h3.1a3.56,3.56,0,0,1,.38,1.64,1.43,1.43,0,0,1-.32,1.09,2,2,0,0,1-1.26.29H387.55a5.14,5.14,0,0,1-.35-1.76,1.28,1.28,0,0,1,.31-1,1.46,1.46,0,0,1,1.07-.31h1q.21-4.3.21-12,0-6-1.28-8a4.53,4.53,0,0,0-4.11-2,5.85,5.85,0,0,0-3.62,1.38q-1.77,1.38-1.77,4.95v6.18c0,3.46.06,6.64.2,9.55h2.37a3.81,3.81,0,0,1,.36,1.64,1.43,1.43,0,0,1-.33,1.09,1.9,1.9,0,0,1-1.23.29H369.74a4.59,4.59,0,0,1-.38-1.76,1.24,1.24,0,0,1,.32-1,1.47,1.47,0,0,1,1.05-.31h2q.23-4.65.23-11.42,0-8.64-.67-10a2.6,2.6,0,0,0-2.58-1.38,3.9,3.9,0,0,1-.38-1.7,1,1,0,0,1,.61-1,66.07,66.07,0,0,1,7.77-.45,17.85,17.85,0,0,1,0,3.45,24.12,24.12,0,0,1,5.58-2.84,15.66,15.66,0,0,1,5-.91,8.23,8.23,0,0,1,4.46,1,5.18,5.18,0,0,1,2.11,2.57,21.74,21.74,0,0,1,5.28-2.68,15.32,15.32,0,0,1,4.88-.9,8,8,0,0,1,5.58,1.8q2,1.81,2,6.87,0,15.76.45,16.7c.31.63,1,.93,2.1.91a4.91,4.91,0,0,1,.32,1.7,1.1,1.1,0,0,1-.5,1.06,4.47,4.47,0,0,1-1.84.26c-2.72,0-4.38,0-5-.1a1.56,1.56,0,0,1-1.23-.62,3.29,3.29,0,0,1-.33-1.71V232.13q0-6-1.27-8a4.54,4.54,0,0,0-4.12-2,5.82,5.82,0,0,0-3.61,1.38Q395.78,224.87,395.78,228.44Z" transform="translate(-141.12 -114.66)"/><path d="M434.63,217.75q5.44,0,8.09,2.57c1.75,1.72,2.63,4.56,2.63,8.5a5.43,5.43,0,0,1-.93,3.63c-.63.69-2,1-4.11,1H427.36a13.48,13.48,0,0,0,1.92,7.5c1.24,1.82,3.44,2.72,6.58,2.72a15.5,15.5,0,0,0,8.17-2.28,3.75,3.75,0,0,1,1.26,2.66c0,1.31-1.08,2.23-3.23,2.76a30.78,30.78,0,0,1-7.31.79q-7.5,0-10.77-3.18t-3.27-10.71q0-7.41,3.68-11.7T434.63,217.75Zm-1.11,3.92a5.17,5.17,0,0,0-4.46,2.1c-1,1.39-1.57,3.58-1.67,6.54h3c3.2,0,5.39-.06,6.55-.19s1.83-.33,2-.63a3.26,3.26,0,0,0,.28-1.64,6.58,6.58,0,0,0-1.47-4.54A5.43,5.43,0,0,0,433.52,221.67Z" transform="translate(-141.12 -114.66)"/></svg>